<svg xmlns="http://www.w3.org/2000/svg" xmlns:xlink="http://www.w3.org/1999/xlink" viewBox="0 0 100 100"><defs><style>.a{fill:url(#a);}.b{fill:#fff;}</style><linearGradient id="a" x1="-6.81" y1="-6.81" x2="102.24" y2="102.24" gradientUnits="userSpaceOnUse"><stop offset="0" stop-color="#ffe185"/><stop offset="0.21" stop-color="#ffbb36"/><stop offset="0.38" stop-color="#ff5176"/><stop offset="0.52" stop-color="#f63395"/><stop offset="0.74" stop-color="#a436d2"/><stop offset="1" stop-color="#5f4eed"/></linearGradient></defs><title>icon_IG</title><rect class="a" x="-0.03" y="-0.03" width="100.03" height="100.03" rx="9.13"/><path class="b" d="M65.32,31.46a3.4,3.4,0,1,0,3.4,3.4A3.4,3.4,0,0,0,65.32,31.46Z"/><path class="b" d="M50.22,35.82A14.27,14.27,0,1,0,64.49,50.09,14.28,14.28,0,0,0,50.22,35.82Zm0,23.4a9.14,9.14,0,1,1,9.14-9.13A9.15,9.15,0,0,1,50.22,59.22Z"/><path class="b" d="M61.55,79.05H38.42A17.42,17.42,0,0,1,21,61.65V38.52a17.42,17.42,0,0,1,17.4-17.4H61.55A17.43,17.43,0,0,1,79,38.52V61.65A17.43,17.43,0,0,1,61.55,79.05ZM38.42,26.57a12,12,0,0,0-12,12V61.65a12,12,0,0,0,12,11.95H61.55a12,12,0,0,0,12-11.95V38.52a12,12,0,0,0-12-12Z"/></svg>