<svg xmlns="http://www.w3.org/2000/svg" viewBox="0 0 100 100"><defs><style>.a{fill:red;}.b{fill:#fff;}</style></defs><title>icon_YT</title><rect class="a" x="-0.03" y="-0.03" width="100.03" height="100.03" rx="9.13"/><path class="b" d="M76.44,44A11.88,11.88,0,0,0,64.57,32.08H34.23A11.87,11.87,0,0,0,22.37,44V58.07A11.86,11.86,0,0,0,34.23,69.93H64.57A11.87,11.87,0,0,0,76.44,58.07ZM58.59,52.07,45,58.8c-.53.28-2.35-.1-2.35-.71V44.28c0-.62,1.83-1,2.36-.7l13,7.09C58.57,51,59.15,51.77,58.59,52.07Z"/></svg>